# xmcd
#
# Track frame offsets: 
#        150
#        10157
#        27592
#        44960
#        61471
#        75919
#        94028
#        111348
#        128776
#        143696
#        156623
#        194029
#        212233
#        227842
#        247586
#        265683
#
# Disc length: 3685 seconds
#
# Revision: 1
# Processed by: cddbd v1.5.2PL0 Copyright (c) Steve Scherf et al.
# Submitted via: ExactAudioCopy v0.99pb4
#
DISCID=e30e6310
DTITLE=Sivion - Spring Of The Songbird
DYEAR=2006
DGENRE=Hip-Hop
TTITLE0=The Spring Show
TTITLE1=All My People
TTITLE2=The Fall
TTITLE3=Listen To This
TTITLE4=Going Through It ft. Braille
TTITLE5=I Still Love H.E.R. ft. Sean P.
TTITLE6=Today IS The Day
TTITLE7=Let Go ft. Othello
TTITLE8=Who Am I ft. Freddie Bruno and Playdough
TTITLE9=Melted Chocolate
TTITLE10=Walk With Me
TTITLE11=Live It Up ft. Theory Hazit
TTITLE12=Caterpillar Dreams
TTITLE13=Songbird Saturday
TTITLE14=So Perfect
TTITLE15=Hip Hop IS Music
EXTD=
EXTT0=
EXTT1=
EXTT2=
EXTT3=
EXTT4=
EXTT5=
EXTT6=
EXTT7=
EXTT8=
EXTT9=
EXTT10=
EXTT11=
EXTT12=
EXTT13=
EXTT14=
EXTT15=
PLAYORDER=
